<svg id="Laag_1" xmlns="http://www.w3.org/2000/svg" version="1.1" width="100%" height="100%" viewBox="70.2 48.2 375.4 73"><g><polygon style="fill:#376696;" points="439.4 60.2 403.9 60.2 403.9 109.8 418.1 109.8 418.1 74.4 439.4 60.2"></polygon><polygon style="fill:#d06524;" points="418.1 74.4 418.1 124 439.4 109.8 439.4 60.2 418.1 74.4"></polygon><polygon style="fill:#de952a;" points="425.2 60.2 403.9 60.2 425.2 46.1 425.2 60.2"></polygon></g><g style="isolation:isolate;"><g style="fill: #376696;"><path d="M79.2,98c-2.8,0-4.8-.6-7-1.9l1.6-3.9c1.9,1,3.5,1.4,4.9,1.4,2.4,0,3.2-1.2,3.2-2.5s-.6-2.3-4-4.2c-4.2-2.1-5.6-4.5-5.6-7.5s3.1-6.9,7.7-6.9,4.6.6,6.5,1.7l-1.5,3.8c-1.4-.6-3-1.3-4.6-1.3s-2.9.9-2.9,2.3.7,2.3,4.1,4.2c4.4,2.3,5.7,4.5,5.7,7.6,0,4.6-3.3,7.2-8.1,7.2Z"></path><path d="M102.2,98c-1.7,0-3.1-.6-5.4-2.6v10.5l-5.2.7v-33.6h4.3l.5,2.8c3.1-2.5,4.8-3.3,6.8-3.3,4.5,0,7.4,4.5,7.4,12.5s-3.6,13-8.4,13ZM101.6,77.3c-1.3,0-2.9,1-4.8,2.7v10.6c1.8,1.7,3.3,2.6,4.6,2.6,2.3,0,4-2.8,4-8s-1.4-7.9-3.8-7.9Z"></path><path d="M120.6,73v15.1c0,2.8.9,5.2,3.1,5.2s3-.8,4.9-2.5v-17.7h5.2v24.6h-4.3l-.5-2.8c-3,2.5-4.9,3.2-7.2,3.2-3.8,0-6.4-2.9-6.4-8.5v-16.5h5.2Z"></path><path d="M139.6,68.4v-5.4h5.2v5.4h-5.2ZM139.6,97.6v-24.6h5.2v24.6h-5.2Z"></path><path d="M156.4,98c-3,0-5.4-1.2-5.4-6.2v-14.7h-3.4v-4.1h3.4v-7l5.2-.8v7.7h4.9v4.1h-4.9v13.8c0,2,.4,2.6,2.2,2.6s1.4,0,2.4-.2l.3,4c-1.3.4-3.1.7-4.7.7Z"></path><path d="M189,97.6h-6.8l-3.4-15h0l-3.5,15h-6.6l-5.5-24.6h5.8l3.6,19h0l4.4-19h4.3l4.3,19h0l3.6-19h5.4l-5.7,24.6Z"></path><path d="M206.7,98c-6.8,0-9.6-3.8-9.6-12.6s3.8-12.9,10.1-12.9,8.9,3.7,8.9,10.8,0,2.4-.1,3.6h-13.6c0,4.8,1.5,6.7,5,6.7s4.8-.5,7.3-1.2l1,3.7c-3.2,1.3-6.1,1.9-9.1,1.9ZM211,82.6c0-3.2-1.1-5.8-4.2-5.8s-4.3,3-4.4,6.1h8.6v-.3Z"></path><path d="M231.3,77.9c-1.9,0-3,.8-5,2.7v17h-5.2v-24.6h4.4l.5,3.2c2.9-3.1,3.9-3.6,5.8-3.6h1.1v5.4h-1.5Z"></path><path d="M248.4,97.6l-6.8-12.2h0v12.2h-5.2v-34.2l5.2-.8v20.5h0l6-10.2h5.9l-6.8,10.7,8.1,13.9h-6.3Z"></path><path d="M266.5,98h-.1c-6.7,0-10.1-3.6-10.1-12.6s3.3-12.8,10.4-12.8h.1c6.7,0,10.1,3.6,10.1,12.6s-3.3,12.8-10.4,12.8ZM266.6,77.1c-3.7,0-5,3.4-5,8.2s1.2,8.1,5,8.1,5-3.3,5-8.1-1.2-8.2-5-8.2Z"></path><path d="M294.9,97.6v-15.1c0-2.8-.9-5.2-3.2-5.2s-2.9.9-4.8,2.7v17.6h-5.2v-24.6h4.3l.5,2.8c3.2-2.6,4.8-3.3,7.2-3.3,3.8,0,6.4,3,6.4,8.5v16.5h-5.2Z"></path><path d="M305.8,97.6v-34.2l5.2-.8v34.9h-5.2Z"></path><path d="M316.8,68.4v-5.4h5.2v5.4h-5.2ZM316.8,97.6v-24.6h5.2v24.6h-5.2Z"></path><path d="M341,97.6v-15.1c0-2.8-.9-5.2-3.2-5.2s-2.9.9-4.8,2.7v17.6h-5.2v-24.6h4.3l.5,2.8c3.2-2.6,4.8-3.3,7.2-3.3,3.8,0,6.4,3,6.4,8.5v16.5h-5.2Z"></path><path d="M360.4,98c-6.8,0-9.6-3.8-9.6-12.6s3.8-12.9,10.1-12.9,8.9,3.7,8.9,10.8,0,2.4-.1,3.6h-13.6c0,4.8,1.5,6.7,5,6.7s4.8-.5,7.3-1.2l1,3.7c-3.2,1.3-6.1,1.9-9.1,1.9ZM364.8,82.6c0-3.2-1.1-5.8-4.2-5.8s-4.3,3-4.4,6.1h8.6v-.3Z"></path></g></g></svg>