<?xml version="1.0" encoding="UTF-8"?><svg id="Layer_1" data-name="Layer 1" xmlns="http://www.w3.org/2000/svg" viewBox="0 0 300 300"><defs><style>.cls-1 {
        fill: none;
        stroke: #d8d8d8;
        stroke-width: 5px;
      }

      .cls-1, .cls-2 {
        stroke-linejoin: round;
      }

      .cls-2 {
        fill: #fff;
        stroke: #4a4a49;
        stroke-linecap: round;
        stroke-width: 4.5px;
      }</style></defs><g><line class="cls-1" x1="43.4" y1="231.01" x2="43.4" y2="0"/><line class="cls-1" x1="43.4" y1="230.06" x2="-36.3" y2="254.18"/><line class="cls-1" x1="43.4" y1="230.06" x2="298.35" y2="300"/></g><g><rect class="cls-2" x="123.36" y="32.17" width="10.57" height="193.64"/><rect class="cls-2" x="208.4" y="52.19" width="10.57" height="193.64"/><polygon class="cls-2" points="208.4 76.72 133.93 56.7 133.93 48.3 208.4 68.31 208.4 76.72"/><polygon class="cls-2" points="208.4 92.37 133.93 72.35 133.93 63.95 208.4 83.96 208.4 92.37"/><polygon class="cls-2" points="208.4 108.02 133.93 88 133.93 79.6 208.4 99.61 208.4 108.02"/><polygon class="cls-2" points="208.4 200.12 133.93 180.1 133.93 171.69 208.4 191.71 208.4 200.12"/><polygon class="cls-2" points="208.4 215.77 133.93 195.75 133.93 187.34 208.4 207.36 208.4 215.77"/><polygon class="cls-2" points="208.4 139.32 133.93 119.3 133.93 110.89 208.4 130.91 208.4 139.32"/><polygon class="cls-2" points="208.4 154.97 133.93 134.95 133.93 126.54 208.4 146.56 208.4 154.97"/><polygon class="cls-2" points="208.4 170.62 133.93 150.6 133.93 142.19 208.4 162.21 208.4 170.62"/><polygon class="cls-2" points="133.93 202.99 133.93 211.4 156.08 217.2 156.07 224.61 163.63 226.82 163.63 219.29 170.32 221.14 170.32 228.78 177.87 231.11 177.87 223.22 208.4 231.42 208.4 223.01 133.93 202.99"/><circle class="cls-2" cx="128.65" cy="31.13" r="1.05"/><circle class="cls-2" cx="213.68" cy="51.15" r="1.05"/><circle class="cls-2" cx="128.65" cy="226.86" r="1.05"/><circle class="cls-2" cx="213.68" cy="246.87" r="1.05"/></g></svg>