<?xml version="1.0" encoding="UTF-8"?><svg id="Layer_1" xmlns="http://www.w3.org/2000/svg" xmlns:xlink="http://www.w3.org/1999/xlink" viewBox="0 0 300 300"><defs><style>.cls-1,.cls-2,.cls-3{fill:none;}.cls-4{fill:#fff;}.cls-4,.cls-2,.cls-3,.cls-5{stroke-linecap:round;stroke-linejoin:round;stroke-width:5px;}.cls-4,.cls-3,.cls-5{stroke:#4a4a49;}.cls-6{clip-path:url(#clippath);}.cls-2{stroke:#d8d8d8;}.cls-7{clip-path:url(#clippath-1);}.cls-8{clip-path:url(#clippath-3);}.cls-9{clip-path:url(#clippath-2);}.cls-5{fill:#5bc5f2;}</style><clipPath id="clippath"><rect class="cls-1" x="-348.7" y="-359.3" width="300" height="300"/></clipPath><clipPath id="clippath-1"><rect class="cls-1" y="-359.3" width="300" height="300"/></clipPath><clipPath id="clippath-2"><rect class="cls-1" x="348.7" y="-359.3" width="300" height="300"/></clipPath><clipPath id="clippath-3"><rect class="cls-1" x="0" width="300" height="300"/></clipPath></defs><g class="cls-6"><g><rect class="cls-4" x="-91.1" y="-143.4" width="159.4" height="197.8"/><rect class="cls-3" x="-145.3" y="-112" width="159.4" height="197.8"/><polygon class="cls-4" points="14 85.8 -145.3 85.8 -90.1 53.8 69.2 53.8 14 85.8"/><polygon class="cls-4" points="69.2 -144 14 -112 14 90.6 69.2 58.7 69.2 -144"/><rect class="cls-4" x="-90.3" y="-18.5" width="197.8" height="10.8" transform="translate(21.8 -4.5) rotate(-90)"/><rect class="cls-4" x="-144.7" y="-101.3" width="158.5" height="180.6"/><rect class="cls-4" x="-463.3" y="79.8" width="477.3" height="10.8"/></g></g><g class="cls-7"><g><polygon class="cls-5" points="44 113.5 -115.4 113.5 -60.2 81.6 99.2 81.6 44 113.5"/><polygon class="cls-5" points="-97.1 49.8 -60.2 28.4 99.2 28.4 62.3 49.8 -97.1 49.8"/><rect class="cls-5" x="-97.1" y="49.8" width="141.1" height="10"/><polygon class="cls-5" points="202.6 113.5 43.2 113.5 98.4 81.6 257.8 81.6 202.6 113.5"/><polygon class="cls-5" points="61.5 49.8 98.4 28.4 257.8 28.4 220.9 49.8 61.5 49.8"/><rect class="cls-5" x="61.5" y="49.8" width="141.1" height="10"/><polygon class="cls-4" points="361.9 113.5 202.6 113.5 257.8 81.6 417.1 81.6 361.9 113.5"/><line class="cls-3" x1="39.6" y1="19.9" x2="-115.8" y2="19.9"/><rect class="cls-5" x="-61.1" y="-115.6" width="159.4" height="197.8"/><rect class="cls-3" x="-115.4" y="-84.3" width="159.4" height="197.8"/><polygon class="cls-4" points="99.2 -116.3 44 -84.3 44 118.4 99.2 86.4 99.2 -116.3"/><rect class="cls-4" x="-60.3" y="9.2" width="197.8" height="10.8" transform="translate(24 53.2) rotate(-90)"/><polygon class="cls-4" points="99.2 -116.3 44 -84.3 44 113.5 99.2 81.6 99.2 -116.3"/><rect class="cls-5" x="97.4" y="-115.6" width="159.4" height="197.8"/><polygon class="cls-5" points="98.4 -116.3 43.2 -84.3 43.2 113.5 98.4 81.6 98.4 -116.3"/><rect class="cls-3" x="43.2" y="-84.3" width="159.4" height="197.8"/><polygon class="cls-4" points="257.8 -116.3 202.6 -84.3 202.6 118.4 257.8 86.4 257.8 -116.3"/><rect class="cls-4" x="98.2" y="9.2" width="197.8" height="10.8" transform="translate(182.5 211.8) rotate(-90)"/><rect class="cls-4" x="-50.3" y="9.2" width="197.8" height="10.8" transform="translate(34 63.2) rotate(-90)"/><rect class="cls-4" x="256.8" y="-115.6" width="159.4" height="197.8"/><polygon class="cls-4" points="257.8 -116.3 202.6 -84.3 202.6 113.5 257.8 81.6 257.8 -116.3"/><rect class="cls-3" x="202.6" y="-84.3" width="159.4" height="197.8"/><rect class="cls-4" x="109" y="9.2" width="197.8" height="10.8" transform="translate(193.3 222.6) rotate(-90)"/><rect class="cls-4" x="203.2" y="-73.5" width="158.5" height="191.9"/><rect class="cls-4" x="53.8" y="-73.5" width="138" height="191.9"/><rect class="cls-4" x="-114.9" y="-73.5" width="158.1" height="191.9"/></g></g><g class="cls-9"><rect class="cls-5" x="288.4" y="-115" width="159.4" height="197.8"/><rect class="cls-3" x="234.2" y="-83.6" width="159.4" height="197.8"/><rect class="cls-4" x="234.6" y="-72.8" width="158.1" height="191.9"/></g><g class="cls-8"><g><g><ellipse class="cls-4" cx="271.1" cy="231.2" rx="6.6" ry="18.9"/><rect class="cls-4" x="244.1" y="227" width="24.2" height="10.3" rx="3.7" ry="3.7"/></g><g><ellipse class="cls-4" cx="192.2" cy="92.7" rx="4.6" ry="13.1"/><rect class="cls-4" x="170.2" y="89.4" width="20" height="8" rx="2.7" ry="2.7"/></g><rect class="cls-5" x="88.4" y="163.2" width="235.8" height="17.1" rx="6.1" ry="6.1" transform="translate(258.5 -91.6) rotate(61.4)"/><line class="cls-2" x1="73.5" y1="111.1" x2="73.5" y2="-43.1"/><polygon class="cls-3" points="-36.4 288.4 185.1 288.4 185.1 276.8 150.3 259.7 -36.4 259.7 -36.4 288.4"/><polygon class="cls-3" points="-36.5 213.1 149.7 213.1 149.7 201.7 117.6 198.9 -36.5 198.9 -36.5 213.1"/><rect class="cls-3" x="-36.5" y="150.3" width="159.4" height="8.8"/><rect class="cls-3" x="-36.5" y="113.3" width="141.5" height="6.6"/><line class="cls-3" x1="149.7" y1="213.1" x2="149.7" y2="259.7"/><line class="cls-3" x1="105" y1="117.9" x2="105" y2="150.3"/><line class="cls-3" x1="185.1" y1="288.4" x2="185.1" y2="300"/><line class="cls-3" x1="122.8" y1="159.2" x2="122.8" y2="198.9"/></g></g></svg>